<svg width="1026" height="1026" viewBox="0 0 1026 1026" fill="none" xmlns="http://www.w3.org/2000/svg">
<g filter="url(#filter0_d_78_176)">
<path d="M0 0H1024V1024H0V0Z" fill="black"/>
<path d="M115 484.82V107H365.194V172.86H194.892V262.888H348.588V328.748H194.892V484.82H115Z" fill="white"/>
<path d="M524.701 490.354C496.041 490.354 471.255 484.266 450.344 472.09C429.556 459.792 413.504 442.696 402.188 420.804C390.871 398.789 385.213 373.269 385.213 344.244C385.213 314.973 390.871 289.391 402.188 267.5C413.504 245.485 429.556 228.389 450.344 216.214C471.255 203.915 496.041 197.765 524.701 197.765C553.361 197.765 578.086 203.915 598.874 216.214C619.784 228.389 635.898 245.485 647.215 267.5C658.531 289.391 664.19 314.973 664.19 344.244C664.19 373.269 658.531 398.789 647.215 420.804C635.898 442.696 619.784 459.792 598.874 472.09C578.086 484.266 553.361 490.354 524.701 490.354ZM525.07 429.475C538.109 429.475 548.995 425.785 557.728 418.406C566.462 410.904 573.042 400.696 577.471 387.782C582.022 374.868 584.297 360.171 584.297 343.691C584.297 327.21 582.022 312.513 577.471 299.599C573.042 286.686 566.462 276.478 557.728 268.975C548.995 261.473 538.109 257.722 525.07 257.722C511.909 257.722 500.838 261.473 491.859 268.975C483.002 276.478 476.298 286.686 471.747 299.599C467.319 312.513 465.105 327.21 465.105 343.691C465.105 360.171 467.319 374.868 471.747 387.782C476.298 400.696 483.002 410.904 491.859 418.406C500.838 425.785 511.909 429.475 525.07 429.475Z" fill="white"/>
<path d="M115.461 539.918H213.989L318.052 793.766H322.48L426.543 539.918H525.07V917.738H447.577V671.823H444.44L346.65 915.893H293.881L196.091 670.901H192.955V917.738H115.461V539.918Z" fill="white"/>
</g>
<defs>
<filter id="filter0_d_78_176" x="0" y="0" width="1026" height="1026" filterUnits="userSpaceOnUse" color-interpolation-filters="sRGB">
<feFlood flood-opacity="0" result="BackgroundImageFix"/>
<feColorMatrix in="SourceAlpha" type="matrix" values="0 0 0 0 0 0 0 0 0 0 0 0 0 0 0 0 0 0 127 0" result="hardAlpha"/>
<feOffset dx="2" dy="2"/>
<feComposite in2="hardAlpha" operator="out"/>
<feColorMatrix type="matrix" values="0 0 0 0 0 0 0 0 0 0 0 0 0 0 0 0 0 0 0.6 0"/>
<feBlend mode="normal" in2="BackgroundImageFix" result="effect1_dropShadow_78_176"/>
<feBlend mode="normal" in="SourceGraphic" in2="effect1_dropShadow_78_176" result="shape"/>
</filter>
</defs>
</svg>
